<?xml version="1.0" encoding="UTF-8"?><svg xmlns="http://www.w3.org/2000/svg" xmlns:xlink="http://www.w3.org/1999/xlink" clip-rule="evenodd" stroke-miterlimit="4.00" viewBox="0 0 1024 768"><desc>SVG generated by Keynote</desc><defs></defs><g transform="matrix(1.00, 0.00, -0.00, -1.00, 0.0, 768.0)"><path d="M 0.0 0.0 L 1024.0 0.0 L 1024.0 768.0 L 0.0 768.0 Z M 0.0 0.0 " fill="#FEFFFF"></path><image xlink:href="6C7B0630C4BD30DB53414C356F6F9DBA.png" width="595.00" height="337.00" transform="matrix(1.00, 0.00, -0.00, -1.00, 423.6, 382.9)" opacity="0.50"></image><image xlink:href="BF0BBC20E8166E4B1180E5F554F946B4.png" width="590.00" height="331.00" transform="matrix(1.00, 0.00, -0.00, -1.00, 427.0, 382.0)"></image><text xml:space="preserve" font-family="Helvetica-Light" font-size="50.0" fill="#000000" transform="matrix(1.00, 0.00, -0.00, -1.00, 341.0, 663.0)">I</text><text xml:space="preserve" font-family="Helvetica-Light" font-size="50.0" fill="#000000" transform="matrix(1.00, 0.00, -0.00, -1.00, 354.9, 663.0)">m</text><text xml:space="preserve" font-family="Helvetica-Light" font-size="50.0" fill="#000000" transform="matrix(1.00, 0.00, -0.00, -1.00, 396.6, 663.0)">p</text><text xml:space="preserve" font-family="Helvetica-Light" font-size="50.0" fill="#000000" transform="matrix(1.00, 0.00, -0.00, -1.00, 427.1, 663.0)">o</text><text xml:space="preserve" font-family="Helvetica-Light" font-size="50.0" fill="#000000" transform="matrix(1.00, 0.00, -0.00, -1.00, 454.9, 663.0)">r</text><text xml:space="preserve" font-family="Helvetica-Light" font-size="50.0" fill="#000000" transform="matrix(1.00, 0.00, -0.00, -1.00, 472.5, 663.0)">t</text><text xml:space="preserve" font-family="Helvetica-Light" font-size="50.0" fill="#000000" transform="matrix(1.00, 0.00, -0.00, -1.00, 486.4, 663.0)"> </text><text xml:space="preserve" font-family="Helvetica-Light" font-size="50.0" fill="#000000" transform="matrix(1.00, 0.00, -0.00, -1.00, 500.2, 663.0)">t</text><text xml:space="preserve" font-family="Helvetica-Light" font-size="50.0" fill="#000000" transform="matrix(1.00, 0.00, -0.00, -1.00, 514.2, 663.0)">h</text><text xml:space="preserve" font-family="Helvetica-Light" font-size="50.0" fill="#000000" transform="matrix(1.00, 0.00, -0.00, -1.00, 542.0, 663.0)">e</text><text xml:space="preserve" font-family="Helvetica-Light" font-size="50.0" fill="#000000" transform="matrix(1.00, 0.00, -0.00, -1.00, 569.8, 663.0)"> </text><text xml:space="preserve" font-family="Helvetica-Light" font-size="50.0" fill="#000000" transform="matrix(1.00, 0.00, -0.00, -1.00, 583.7, 663.0)">d</text><text xml:space="preserve" font-family="Helvetica-Light" font-size="50.0" fill="#000000" transform="matrix(1.00, 0.00, -0.00, -1.00, 614.2, 663.0)">a</text><text xml:space="preserve" font-family="Helvetica-Light" font-size="50.0" fill="#000000" transform="matrix(1.00, 0.00, -0.00, -1.00, 642.0, 663.0)">t</text><text xml:space="preserve" font-family="Helvetica-Light" font-size="50.0" fill="#000000" transform="matrix(1.00, 0.00, -0.00, -1.00, 655.9, 663.0)">a</text><image xlink:href="22F1D1C99D1956619D73DB6AF457D101.png" width="919.00" height="81.00" transform="matrix(1.00, 0.00, -0.00, -1.00, 52.5, 553.2)" opacity="0.50"></image><path d="M 57.5 550.2 L 966.5 550.2 L 966.5 478.9 L 57.5 478.9 Z M 57.5 550.2 " fill="#DCDDE0"></path><g><clipPath id="clip-18"><path d="M 53.9 472.6 L 1860.2 472.6 L 1860.2 553.8 L 53.9 553.8 Z M 53.9 472.6 "></path></clipPath><g clip-path="url(#clip-18)"><path d="M 61.5 513.2 L 961.5 513.2 L 961.5 546.2 L 61.5 546.2 Z M 61.5 513.2 " fill="#000000" fill-opacity="0.00"></path></g></g><g><clipPath id="clip-19"><path d="M 53.9 482.9 L 1024.0 482.9 L 1024.0 546.2 L 53.9 546.2 Z M 53.9 482.9 "></path></clipPath><g clip-path="url(#clip-19)"><path d="M 61.5 480.2 L 481.5 480.2 L 481.5 513.2 L 61.5 513.2 Z M 61.5 480.2 " fill="#000000" fill-opacity="0.00"></path></g></g><g><clipPath id="clip-20"><path d="M 53.9 472.6 L 1860.2 472.6 L 1860.2 553.8 L 53.9 553.8 Z M 53.9 472.6 "></path></clipPath><g clip-path="url(#clip-20)"><text xml:space="preserve" font-family="Inconsolata" font-size="30.0" fill="#323232" transform="matrix(1.00, 0.00, -0.00, -1.00, 61.0, 521.0)">d</text><text xml:space="preserve" font-family="Inconsolata" font-size="30.0" fill="#323232" transform="matrix(1.00, 0.00, -0.00, -1.00, 76.0, 521.0)">a</text><text xml:space="preserve" font-family="Inconsolata" font-size="30.0" fill="#323232" transform="matrix(1.00, 0.00, -0.00, -1.00, 91.0, 521.0)">t</text><text xml:space="preserve" font-family="Inconsolata" font-size="30.0" fill="#323232" transform="matrix(1.00, 0.00, -0.00, -1.00, 106.0, 521.0)"> </text><text xml:space="preserve" font-family="Inconsolata" font-size="30.0" fill="#323232" transform="matrix(1.00, 0.00, -0.00, -1.00, 121.0, 521.0)">&lt;</text><text xml:space="preserve" font-family="Inconsolata" font-size="30.0" fill="#323232" transform="matrix(1.00, 0.00, -0.00, -1.00, 136.0, 521.0)">-</text><text xml:space="preserve" font-family="Inconsolata" font-size="30.0" fill="#008080" transform="matrix(1.00, 0.00, -0.00, -1.00, 151.0, 521.0)"> </text><text xml:space="preserve" font-family="Inconsolata" font-size="30.0" fill="#0432FF" transform="matrix(1.00, 0.00, -0.00, -1.00, 166.0, 521.0)">r</text><text xml:space="preserve" font-family="Inconsolata" font-size="30.0" fill="#0432FF" transform="matrix(1.00, 0.00, -0.00, -1.00, 181.0, 521.0)">e</text><text xml:space="preserve" font-family="Inconsolata" font-size="30.0" fill="#0432FF" transform="matrix(1.00, 0.00, -0.00, -1.00, 196.0, 521.0)">a</text><text xml:space="preserve" font-family="Inconsolata" font-size="30.0" fill="#0432FF" transform="matrix(1.00, 0.00, -0.00, -1.00, 211.0, 521.0)">d</text><text xml:space="preserve" font-family="Inconsolata" font-size="30.0" fill="#0432FF" transform="matrix(1.00, 0.00, -0.00, -1.00, 226.0, 521.0)">_</text><text xml:space="preserve" font-family="Inconsolata" font-size="30.0" fill="#0432FF" transform="matrix(1.00, 0.00, -0.00, -1.00, 241.0, 521.0)">e</text><text xml:space="preserve" font-family="Inconsolata" font-size="30.0" fill="#0432FF" transform="matrix(1.00, 0.00, -0.00, -1.00, 256.0, 521.0)">x</text><text xml:space="preserve" font-family="Inconsolata" font-size="30.0" fill="#0432FF" transform="matrix(1.00, 0.00, -0.00, -1.00, 271.0, 521.0)">c</text><text xml:space="preserve" font-family="Inconsolata" font-size="30.0" fill="#0432FF" transform="matrix(1.00, 0.00, -0.00, -1.00, 286.0, 521.0)">e</text><text xml:space="preserve" font-family="Inconsolata" font-size="30.0" fill="#0432FF" transform="matrix(1.00, 0.00, -0.00, -1.00, 301.0, 521.0)">l</text><text xml:space="preserve" font-family="Inconsolata" font-size="30.0" fill="#323232" transform="matrix(1.00, 0.00, -0.00, -1.00, 316.0, 521.0)">(</text><text xml:space="preserve" font-family="Inconsolata" font-size="30.0" fill="#008080" transform="matrix(1.00, 0.00, -0.00, -1.00, 331.0, 521.0)">"</text><text xml:space="preserve" font-family="Inconsolata" font-size="30.0" fill="#008080" transform="matrix(1.00, 0.00, -0.00, -1.00, 346.0, 521.0)">.</text><text xml:space="preserve" font-family="Inconsolata" font-size="30.0" fill="#008080" transform="matrix(1.00, 0.00, -0.00, -1.00, 361.0, 521.0)">.</text><text xml:space="preserve" font-family="Inconsolata" font-size="30.0" fill="#008080" transform="matrix(1.00, 0.00, -0.00, -1.00, 376.0, 521.0)">/</text><text xml:space="preserve" font-family="Inconsolata" font-size="30.0" fill="#008080" transform="matrix(1.00, 0.00, -0.00, -1.00, 391.0, 521.0)">d</text><text xml:space="preserve" font-family="Inconsolata" font-size="30.0" fill="#008080" transform="matrix(1.00, 0.00, -0.00, -1.00, 406.0, 521.0)">a</text><text xml:space="preserve" font-family="Inconsolata" font-size="30.0" fill="#008080" transform="matrix(1.00, 0.00, -0.00, -1.00, 421.0, 521.0)">t</text><text xml:space="preserve" font-family="Inconsolata" font-size="30.0" fill="#008080" transform="matrix(1.00, 0.00, -0.00, -1.00, 436.0, 521.0)">a</text><text xml:space="preserve" font-family="Inconsolata" font-size="30.0" fill="#008080" transform="matrix(1.00, 0.00, -0.00, -1.00, 451.0, 521.0)">/</text><text xml:space="preserve" font-family="Inconsolata" font-size="30.0" fill="#008080" transform="matrix(1.00, 0.00, -0.00, -1.00, 466.0, 521.0)">i</text><text xml:space="preserve" font-family="Inconsolata" font-size="30.0" fill="#008080" transform="matrix(1.00, 0.00, -0.00, -1.00, 481.0, 521.0)">h</text><text xml:space="preserve" font-family="Inconsolata" font-size="30.0" fill="#008080" transform="matrix(1.00, 0.00, -0.00, -1.00, 496.0, 521.0)">-</text><text xml:space="preserve" font-family="Inconsolata" font-size="30.0" fill="#008080" transform="matrix(1.00, 0.00, -0.00, -1.00, 511.0, 521.0)">t</text><text xml:space="preserve" font-family="Inconsolata" font-size="30.0" fill="#008080" transform="matrix(1.00, 0.00, -0.00, -1.00, 526.0, 521.0)">r</text><text xml:space="preserve" font-family="Inconsolata" font-size="30.0" fill="#008080" transform="matrix(1.00, 0.00, -0.00, -1.00, 541.0, 521.0)">i</text><text xml:space="preserve" font-family="Inconsolata" font-size="30.0" fill="#008080" transform="matrix(1.00, 0.00, -0.00, -1.00, 556.0, 521.0)">a</text><text xml:space="preserve" font-family="Inconsolata" font-size="30.0" fill="#008080" transform="matrix(1.00, 0.00, -0.00, -1.00, 571.0, 521.0)">l</text><text xml:space="preserve" font-family="Inconsolata" font-size="30.0" fill="#008080" transform="matrix(1.00, 0.00, -0.00, -1.00, 586.0, 521.0)">_</text><text xml:space="preserve" font-family="Inconsolata" font-size="30.0" fill="#008080" transform="matrix(1.00, 0.00, -0.00, -1.00, 601.0, 521.0)">r</text><text xml:space="preserve" font-family="Inconsolata" font-size="30.0" fill="#008080" transform="matrix(1.00, 0.00, -0.00, -1.00, 616.0, 521.0)">e</text><text xml:space="preserve" font-family="Inconsolata" font-size="30.0" fill="#008080" transform="matrix(1.00, 0.00, -0.00, -1.00, 631.0, 521.0)">s</text><text xml:space="preserve" font-family="Inconsolata" font-size="30.0" fill="#008080" transform="matrix(1.00, 0.00, -0.00, -1.00, 646.0, 521.0)">u</text><text xml:space="preserve" font-family="Inconsolata" font-size="30.0" fill="#008080" transform="matrix(1.00, 0.00, -0.00, -1.00, 661.0, 521.0)">l</text><text xml:space="preserve" font-family="Inconsolata" font-size="30.0" fill="#008080" transform="matrix(1.00, 0.00, -0.00, -1.00, 676.0, 521.0)">t</text><text xml:space="preserve" font-family="Inconsolata" font-size="30.0" fill="#008080" transform="matrix(1.00, 0.00, -0.00, -1.00, 691.0, 521.0)">s</text><text xml:space="preserve" font-family="Inconsolata" font-size="30.0" fill="#008080" transform="matrix(1.00, 0.00, -0.00, -1.00, 706.0, 521.0)">_</text><text xml:space="preserve" font-family="Inconsolata" font-size="30.0" fill="#008080" transform="matrix(1.00, 0.00, -0.00, -1.00, 721.0, 521.0)">2</text><text xml:space="preserve" font-family="Inconsolata" font-size="30.0" fill="#008080" transform="matrix(1.00, 0.00, -0.00, -1.00, 736.0, 521.0)">0</text><text xml:space="preserve" font-family="Inconsolata" font-size="30.0" fill="#008080" transform="matrix(1.00, 0.00, -0.00, -1.00, 751.0, 521.0)">1</text><text xml:space="preserve" font-family="Inconsolata" font-size="30.0" fill="#008080" transform="matrix(1.00, 0.00, -0.00, -1.00, 766.0, 521.0)">7</text><text xml:space="preserve" font-family="Inconsolata" font-size="30.0" fill="#008080" transform="matrix(1.00, 0.00, -0.00, -1.00, 781.0, 521.0)">1</text><text xml:space="preserve" font-family="Inconsolata" font-size="30.0" fill="#008080" transform="matrix(1.00, 0.00, -0.00, -1.00, 796.0, 521.0)">0</text><text xml:space="preserve" font-family="Inconsolata" font-size="30.0" fill="#008080" transform="matrix(1.00, 0.00, -0.00, -1.00, 811.0, 521.0)">2</text><text xml:space="preserve" font-family="Inconsolata" font-size="30.0" fill="#008080" transform="matrix(1.00, 0.00, -0.00, -1.00, 826.0, 521.0)">0</text><text xml:space="preserve" font-family="Inconsolata" font-size="30.0" fill="#008080" transform="matrix(1.00, 0.00, -0.00, -1.00, 841.0, 521.0)">.</text><text xml:space="preserve" font-family="Inconsolata" font-size="30.0" fill="#008080" transform="matrix(1.00, 0.00, -0.00, -1.00, 856.0, 521.0)">x</text><text xml:space="preserve" font-family="Inconsolata" font-size="30.0" fill="#008080" transform="matrix(1.00, 0.00, -0.00, -1.00, 871.0, 521.0)">l</text><text xml:space="preserve" font-family="Inconsolata" font-size="30.0" fill="#008080" transform="matrix(1.00, 0.00, -0.00, -1.00, 886.0, 521.0)">s</text><text xml:space="preserve" font-family="Inconsolata" font-size="30.0" fill="#008080" transform="matrix(1.00, 0.00, -0.00, -1.00, 901.0, 521.0)">x</text><text xml:space="preserve" font-family="Inconsolata" font-size="30.0" fill="#008080" transform="matrix(1.00, 0.00, -0.00, -1.00, 916.0, 521.0)">"</text><text xml:space="preserve" font-family="Inconsolata" font-size="30.0" fill="#323232" transform="matrix(1.00, 0.00, -0.00, -1.00, 931.0, 521.0)">,</text><text xml:space="preserve" font-family="Inconsolata" font-size="30.0" fill="#323232" transform="matrix(1.00, 0.00, -0.00, -1.00, 946.0, 521.0)"> </text><text xml:space="preserve" font-family="Inconsolata" font-size="30.0" fill="#323232" transform="matrix(1.00, 0.00, -0.00, -1.00, 61.0, 488.0)"> </text><text xml:space="preserve" font-family="Inconsolata" font-size="30.0" fill="#323232" transform="matrix(1.00, 0.00, -0.00, -1.00, 76.0, 488.0)"> </text><text xml:space="preserve" font-family="Inconsolata" font-size="30.0" fill="#323232" transform="matrix(1.00, 0.00, -0.00, -1.00, 91.0, 488.0)"> </text><text xml:space="preserve" font-family="Inconsolata" font-size="30.0" fill="#323232" transform="matrix(1.00, 0.00, -0.00, -1.00, 106.0, 488.0)"> </text><text xml:space="preserve" font-family="Inconsolata" font-size="30.0" fill="#323232" transform="matrix(1.00, 0.00, -0.00, -1.00, 121.0, 488.0)"> </text><text xml:space="preserve" font-family="Inconsolata" font-size="30.0" fill="#323232" transform="matrix(1.00, 0.00, -0.00, -1.00, 136.0, 488.0)"> </text><text xml:space="preserve" font-family="Inconsolata" font-size="30.0" fill="#323232" transform="matrix(1.00, 0.00, -0.00, -1.00, 151.0, 488.0)"> </text><text xml:space="preserve" font-family="Inconsolata" font-size="30.0" fill="#323232" transform="matrix(1.00, 0.00, -0.00, -1.00, 166.0, 488.0)"> </text><text xml:space="preserve" font-family="Inconsolata" font-size="30.0" fill="#323232" transform="matrix(1.00, 0.00, -0.00, -1.00, 181.0, 488.0)"> </text><text xml:space="preserve" font-family="Inconsolata" font-size="30.0" fill="#323232" transform="matrix(1.00, 0.00, -0.00, -1.00, 196.0, 488.0)"> </text><text xml:space="preserve" font-family="Inconsolata" font-size="30.0" fill="#323232" transform="matrix(1.00, 0.00, -0.00, -1.00, 211.0, 488.0)"> </text><text xml:space="preserve" font-family="Inconsolata" font-size="30.0" fill="#323232" transform="matrix(1.00, 0.00, -0.00, -1.00, 226.0, 488.0)"> </text><text xml:space="preserve" font-family="Inconsolata" font-size="30.0" fill="#323232" transform="matrix(1.00, 0.00, -0.00, -1.00, 241.0, 488.0)"> </text><text xml:space="preserve" font-family="Inconsolata" font-size="30.0" fill="#323232" transform="matrix(1.00, 0.00, -0.00, -1.00, 256.0, 488.0)"> </text><text xml:space="preserve" font-family="Inconsolata" font-size="30.0" fill="#323232" transform="matrix(1.00, 0.00, -0.00, -1.00, 271.0, 488.0)"> </text><text xml:space="preserve" font-family="Inconsolata" font-size="30.0" fill="#323232" transform="matrix(1.00, 0.00, -0.00, -1.00, 286.0, 488.0)"> </text><text xml:space="preserve" font-family="Inconsolata" font-size="30.0" fill="#323232" transform="matrix(1.00, 0.00, -0.00, -1.00, 301.0, 488.0)"> </text><text xml:space="preserve" font-family="Inconsolata" font-size="30.0" fill="#323232" transform="matrix(1.00, 0.00, -0.00, -1.00, 316.0, 488.0)"> </text><text xml:space="preserve" font-family="Inconsolata" font-size="30.0" fill="#323232" transform="matrix(1.00, 0.00, -0.00, -1.00, 331.0, 488.0)">s</text><text xml:space="preserve" font-family="Inconsolata" font-size="30.0" fill="#323232" transform="matrix(1.00, 0.00, -0.00, -1.00, 346.0, 488.0)">h</text><text xml:space="preserve" font-family="Inconsolata" font-size="30.0" fill="#323232" transform="matrix(1.00, 0.00, -0.00, -1.00, 361.0, 488.0)">e</text><text xml:space="preserve" font-family="Inconsolata" font-size="30.0" fill="#323232" transform="matrix(1.00, 0.00, -0.00, -1.00, 376.0, 488.0)">e</text><text xml:space="preserve" font-family="Inconsolata" font-size="30.0" fill="#323232" transform="matrix(1.00, 0.00, -0.00, -1.00, 391.0, 488.0)">t</text><text xml:space="preserve" font-family="Inconsolata" font-size="30.0" fill="#323232" transform="matrix(1.00, 0.00, -0.00, -1.00, 406.0, 488.0)"> </text><text xml:space="preserve" font-family="Inconsolata" font-size="30.0" fill="#323232" transform="matrix(1.00, 0.00, -0.00, -1.00, 421.0, 488.0)">=</text><text xml:space="preserve" font-family="Inconsolata" font-size="30.0" fill="#323232" transform="matrix(1.00, 0.00, -0.00, -1.00, 436.0, 488.0)"> </text><text xml:space="preserve" font-family="Inconsolata" font-size="30.0" fill="#323232" transform="matrix(1.00, 0.00, -0.00, -1.00, 451.0, 488.0)">1</text><text xml:space="preserve" font-family="Inconsolata" font-size="30.0" fill="#323232" transform="matrix(1.00, 0.00, -0.00, -1.00, 466.0, 488.0)">)</text></g></g><image xlink:href="0839ADE04DC7B02AFB4D31CF4033B20E.png" width="403.00" height="368.00" transform="matrix(1.00, 0.00, -0.00, -1.00, 22.3, 397.9)" opacity="0.50"></image><image xlink:href="../../4A694B45-9027-460A-96BC-3C6E4C7F3266/assets/053DAAF462F52E4D21C88E943CE76C67.png" width="593.00" height="540.00" transform="matrix(0.67, 0.00, -0.00, -0.67, 25.0, 397.0)"></image><image xlink:href="F7589C337CF5094A1A517B3B323299E3.png" width="239.00" height="106.00" transform="matrix(1.00, 0.00, -0.00, -1.00, 333.2, 269.1)" opacity="0.50"></image><g><clipPath id="clip-21"><path d="M 504.8 202.1 L 504.8 168.1 L 568.8 218.1 L 504.8 268.1 L 504.8 234.1 L 336.2 234.1 L 336.2 202.1 Z M 504.8 202.1 "></path></clipPath><g clip-path="url(#clip-21)"><image xlink:href="../../615F7CD4-E262-41F7-8138-806EC6AB1FAB/assets/D7526DBDA3649FBB3D14C5F8E1638CB4.jpeg" width="393.00" height="393.00" transform="matrix(0.76, 0.00, -0.00, -0.76, 336.2, 268.1)"></image><path d="M 336.2 168.1 L 568.8 168.1 L 568.8 268.1 L 336.2 268.1 Z M 336.2 168.1 " fill="#009BFC" fill-opacity="0.50"></path></g></g><image xlink:href="A2CB2276C3EB5D2D512C31930E0511A4.png" width="166.00" height="87.00" transform="matrix(1.00, 0.00, -0.00, -1.01, 120.0, 262.0)"></image><image xlink:href="../../28AB280F-DD52-4CD5-9349-FF3337604FCB/assets/D33CCB6CDB08DA3351855B3C11AD24F9.png" width="260.00" height="201.00" transform="matrix(0.66, 0.00, -0.00, -0.66, 653.0, 284.0)"></image></g></svg>