<?xml version="1.0" encoding="UTF-8"?><svg xmlns="http://www.w3.org/2000/svg" xmlns:xlink="http://www.w3.org/1999/xlink" clip-rule="evenodd" stroke-miterlimit="4.00" viewBox="0 0 1024 768"><desc>SVG generated by Keynote</desc><defs><pattern id="D4C8DA4B-0BB0-47BF-A7FA-406C2AEB3CB6" patternUnits="userSpaceOnUse" width="410" height="410" viewBox="0 0 410 410" patternTransform="matrix(0.731707, 0.000000, 0.000000, -0.731707, 62.712520, 531.243200)"><image xlink:href="6138D0B2CBF6112E6A380E3E5DA4A92D.jpeg" width="410.00" height="410.00"></image></pattern><pattern id="A4FD3747-E20A-4F40-9096-9378CA371299" patternUnits="userSpaceOnUse" width="410" height="410" viewBox="0 0 410 410" patternTransform="matrix(0.731707, 0.000000, 0.000000, -0.731707, 62.712490, 468.795700)"><image xlink:href="../../21797420-5249-48F8-A4B6-192F2AA7EBAB/assets/6138D0B2CBF6112E6A380E3E5DA4A92D.jpeg" width="410.00" height="410.00"></image></pattern><pattern id="37D1228E-F147-428A-929B-3BCB55DB5DD5" patternUnits="userSpaceOnUse" width="410" height="410" viewBox="0 0 410 410" patternTransform="matrix(0.731707, 0.000000, 0.000000, -0.731707, 62.712520, 344.977000)"><image xlink:href="../../21797420-5249-48F8-A4B6-192F2AA7EBAB/assets/6138D0B2CBF6112E6A380E3E5DA4A92D.jpeg" width="410.00" height="410.00"></image></pattern><pattern id="2AD6EF9E-A436-41C1-BC9D-430E3C9974A1" patternUnits="userSpaceOnUse" width="410" height="410" viewBox="0 0 410 410" patternTransform="matrix(0.731707, 0.000000, 0.000000, -0.731707, 62.712520, 161.194900)"><image xlink:href="../../21797420-5249-48F8-A4B6-192F2AA7EBAB/assets/6138D0B2CBF6112E6A380E3E5DA4A92D.jpeg" width="410.00" height="410.00"></image></pattern><pattern id="5BC2D3CD-03ED-4529-A361-98BFA3CA43E6" patternUnits="userSpaceOnUse" width="410" height="410" viewBox="0 0 410 410" patternTransform="matrix(0.731707, 0.000000, 0.000000, -0.731707, 62.712520, 405.348200)"><image xlink:href="../../21797420-5249-48F8-A4B6-192F2AA7EBAB/assets/6138D0B2CBF6112E6A380E3E5DA4A92D.jpeg" width="410.00" height="410.00"></image></pattern><pattern id="B38ED1EF-8430-4AF7-8B69-245CA606F933" patternUnits="userSpaceOnUse" width="410" height="410" viewBox="0 0 410 410" patternTransform="matrix(0.731707, 0.000000, 0.000000, -0.731707, 62.712550, 221.566200)"><image xlink:href="../../21797420-5249-48F8-A4B6-192F2AA7EBAB/assets/6138D0B2CBF6112E6A380E3E5DA4A92D.jpeg" width="410.00" height="410.00"></image></pattern></defs><g transform="matrix(1.00, 0.00, -0.00, -1.00, 0.0, 768.0)"><path d="M 0.0 0.0 L 1024.0 0.0 L 1024.0 768.0 L 0.0 768.0 Z M 0.0 0.0 " fill="#FEFFFF"></path><image xlink:href="9F8C866120FF5B8CD0B416F6FE470DEE.png" width="319.00" height="114.00" transform="matrix(1.00, 0.00, -0.00, -1.00, 567.1, 569.2)" opacity="0.50"></image><path d="M 572.1 566.2 L 881.1 566.2 L 881.1 461.9 L 572.1 461.9 Z M 572.1 566.2 " fill="#DCDDE0"></path><g><clipPath id="clip-64"><path d="M 568.5 455.6 L 1174.9 455.6 L 1174.9 569.7 L 568.5 569.7 Z M 568.5 455.6 "></path></clipPath><g clip-path="url(#clip-64)"><path d="M 576.1 529.2 L 696.1 529.2 L 696.1 562.2 L 576.1 562.2 Z M 576.1 529.2 " fill="#000000" fill-opacity="0.00"></path><path d="M 576.1 496.2 L 876.1 496.2 L 876.1 529.2 L 576.1 529.2 Z M 576.1 496.2 " fill="#000000" fill-opacity="0.00"></path></g></g><g><clipPath id="clip-65"><path d="M 568.5 465.9 L 1024.0 465.9 L 1024.0 562.2 L 568.5 562.2 Z M 568.5 465.9 "></path></clipPath><g clip-path="url(#clip-65)"><path d="M 576.1 463.2 L 711.1 463.2 L 711.1 496.2 L 576.1 496.2 Z M 576.1 463.2 " fill="#000000" fill-opacity="0.00"></path></g></g><g><clipPath id="clip-66"><path d="M 568.5 455.6 L 1174.9 455.6 L 1174.9 569.7 L 568.5 569.7 Z M 568.5 455.6 "></path></clipPath><g clip-path="url(#clip-66)"><text xml:space="preserve" font-family="Inconsolata" font-size="30.0" fill="#323232" transform="matrix(1.00, 0.00, -0.00, -1.00, 576.0, 537.0)">d</text><text xml:space="preserve" font-family="Inconsolata" font-size="30.0" fill="#323232" transform="matrix(1.00, 0.00, -0.00, -1.00, 591.0, 537.0)">a</text><text xml:space="preserve" font-family="Inconsolata" font-size="30.0" fill="#323232" transform="matrix(1.00, 0.00, -0.00, -1.00, 606.0, 537.0)">t</text><text xml:space="preserve" font-family="Inconsolata" font-size="30.0" fill="#323232" transform="matrix(1.00, 0.00, -0.00, -1.00, 621.0, 537.0)"> </text><text xml:space="preserve" font-family="Inconsolata" font-size="30.0" fill="#323232" transform="matrix(1.00, 0.00, -0.00, -1.00, 636.0, 537.0)">%</text><text xml:space="preserve" font-family="Inconsolata" font-size="30.0" fill="#323232" transform="matrix(1.00, 0.00, -0.00, -1.00, 651.0, 537.0)">&gt;</text><text xml:space="preserve" font-family="Inconsolata" font-size="30.0" fill="#323232" transform="matrix(1.00, 0.00, -0.00, -1.00, 666.0, 537.0)">%</text><text xml:space="preserve" font-family="Inconsolata" font-size="30.0" fill="#323232" transform="matrix(1.00, 0.00, -0.00, -1.00, 681.0, 537.0)"> </text><text xml:space="preserve" font-family="Inconsolata" font-size="30.0" fill="#008080" transform="matrix(1.00, 0.00, -0.00, -1.00, 576.0, 504.0)"> </text><text xml:space="preserve" font-family="Inconsolata" font-size="30.0" fill="#008080" transform="matrix(1.00, 0.00, -0.00, -1.00, 591.0, 504.0)"> </text><text xml:space="preserve" font-family="Inconsolata" font-size="30.0" fill="#0432FF" transform="matrix(1.00, 0.00, -0.00, -1.00, 606.0, 504.0)">g</text><text xml:space="preserve" font-family="Inconsolata" font-size="30.0" fill="#0432FF" transform="matrix(1.00, 0.00, -0.00, -1.00, 621.0, 504.0)">r</text><text xml:space="preserve" font-family="Inconsolata" font-size="30.0" fill="#0432FF" transform="matrix(1.00, 0.00, -0.00, -1.00, 636.0, 504.0)">o</text><text xml:space="preserve" font-family="Inconsolata" font-size="30.0" fill="#0432FF" transform="matrix(1.00, 0.00, -0.00, -1.00, 651.0, 504.0)">u</text><text xml:space="preserve" font-family="Inconsolata" font-size="30.0" fill="#0432FF" transform="matrix(1.00, 0.00, -0.00, -1.00, 666.0, 504.0)">p</text><text xml:space="preserve" font-family="Inconsolata" font-size="30.0" fill="#0432FF" transform="matrix(1.00, 0.00, -0.00, -1.00, 681.0, 504.0)">_</text><text xml:space="preserve" font-family="Inconsolata" font-size="30.0" fill="#0432FF" transform="matrix(1.00, 0.00, -0.00, -1.00, 696.0, 504.0)">b</text><text xml:space="preserve" font-family="Inconsolata" font-size="30.0" fill="#0432FF" transform="matrix(1.00, 0.00, -0.00, -1.00, 711.0, 504.0)">y</text><text xml:space="preserve" font-family="Inconsolata" font-size="30.0" fill="#323232" transform="matrix(1.00, 0.00, -0.00, -1.00, 726.0, 504.0)">(</text><text xml:space="preserve" font-family="Inconsolata" font-size="30.0" fill="#323232" transform="matrix(1.00, 0.00, -0.00, -1.00, 741.0, 504.0)">s</text><text xml:space="preserve" font-family="Inconsolata" font-size="30.0" fill="#323232" transform="matrix(1.00, 0.00, -0.00, -1.00, 756.0, 504.0)">e</text><text xml:space="preserve" font-family="Inconsolata" font-size="30.0" fill="#323232" transform="matrix(1.00, 0.00, -0.00, -1.00, 771.0, 504.0)">x</text><text xml:space="preserve" font-family="Inconsolata" font-size="30.0" fill="#323232" transform="matrix(1.00, 0.00, -0.00, -1.00, 786.0, 504.0)">)</text><text xml:space="preserve" font-family="Inconsolata" font-size="30.0" fill="#323232" transform="matrix(1.00, 0.00, -0.00, -1.00, 801.0, 504.0)"> </text><text xml:space="preserve" font-family="Inconsolata" font-size="30.0" fill="#323232" transform="matrix(1.00, 0.00, -0.00, -1.00, 816.0, 504.0)">%</text><text xml:space="preserve" font-family="Inconsolata" font-size="30.0" fill="#323232" transform="matrix(1.00, 0.00, -0.00, -1.00, 831.0, 504.0)">&gt;</text><text xml:space="preserve" font-family="Inconsolata" font-size="30.0" fill="#323232" transform="matrix(1.00, 0.00, -0.00, -1.00, 846.0, 504.0)">%</text><text xml:space="preserve" font-family="Inconsolata" font-size="30.0" fill="#323232" transform="matrix(1.00, 0.00, -0.00, -1.00, 861.0, 504.0)"> </text><text xml:space="preserve" font-family="Inconsolata" font-size="30.0" fill="#008080" transform="matrix(1.00, 0.00, -0.00, -1.00, 576.0, 471.0)"> </text><text xml:space="preserve" font-family="Inconsolata" font-size="30.0" fill="#008080" transform="matrix(1.00, 0.00, -0.00, -1.00, 591.0, 471.0)"> </text><text xml:space="preserve" font-family="Inconsolata" font-size="30.0" fill="#0432FF" transform="matrix(1.00, 0.00, -0.00, -1.00, 606.0, 471.0)">t</text><text xml:space="preserve" font-family="Inconsolata" font-size="30.0" fill="#0432FF" transform="matrix(1.00, 0.00, -0.00, -1.00, 621.0, 471.0)">a</text><text xml:space="preserve" font-family="Inconsolata" font-size="30.0" fill="#0432FF" transform="matrix(1.00, 0.00, -0.00, -1.00, 636.0, 471.0)">l</text><text xml:space="preserve" font-family="Inconsolata" font-size="30.0" fill="#0432FF" transform="matrix(1.00, 0.00, -0.00, -1.00, 651.0, 471.0)">l</text><text xml:space="preserve" font-family="Inconsolata" font-size="30.0" fill="#0432FF" transform="matrix(1.00, 0.00, -0.00, -1.00, 666.0, 471.0)">y</text><text xml:space="preserve" font-family="Inconsolata" font-size="30.0" fill="#323232" transform="matrix(1.00, 0.00, -0.00, -1.00, 681.0, 471.0)">(</text><text xml:space="preserve" font-family="Inconsolata" font-size="30.0" fill="#323232" transform="matrix(1.00, 0.00, -0.00, -1.00, 696.0, 471.0)">)</text></g></g><text xml:space="preserve" font-family="Helvetica-Light" font-size="50.0" fill="#000000" transform="matrix(1.00, 0.00, -0.00, -1.00, 166.0, 663.0)">E</text><text xml:space="preserve" font-family="Helvetica-Light" font-size="50.0" fill="#000000" transform="matrix(1.00, 0.00, -0.00, -1.00, 196.6, 663.0)">x</text><text xml:space="preserve" font-family="Helvetica-Light" font-size="50.0" fill="#000000" transform="matrix(1.00, 0.00, -0.00, -1.00, 221.6, 663.0)">a</text><text xml:space="preserve" font-family="Helvetica-Light" font-size="50.0" fill="#000000" transform="matrix(1.00, 0.00, -0.00, -1.00, 249.3, 663.0)">m</text><text xml:space="preserve" font-family="Helvetica-Light" font-size="50.0" fill="#000000" transform="matrix(1.00, 0.00, -0.00, -1.00, 291.0, 663.0)">i</text><text xml:space="preserve" font-family="Helvetica-Light" font-size="50.0" fill="#000000" transform="matrix(1.00, 0.00, -0.00, -1.00, 302.1, 663.0)">n</text><text xml:space="preserve" font-family="Helvetica-Light" font-size="50.0" fill="#000000" transform="matrix(1.00, 0.00, -0.00, -1.00, 329.9, 663.0)">e</text><text xml:space="preserve" font-family="Helvetica-Light" font-size="50.0" fill="#000000" transform="matrix(1.00, 0.00, -0.00, -1.00, 357.7, 663.0)"> </text><text xml:space="preserve" font-family="Helvetica-Light" font-size="50.0" fill="#000000" transform="matrix(1.00, 0.00, -0.00, -1.00, 371.6, 663.0)">t</text><text xml:space="preserve" font-family="Helvetica-Light" font-size="50.0" fill="#000000" transform="matrix(1.00, 0.00, -0.00, -1.00, 385.5, 663.0)">h</text><text xml:space="preserve" font-family="Helvetica-Light" font-size="50.0" fill="#000000" transform="matrix(1.00, 0.00, -0.00, -1.00, 413.3, 663.0)">e</text><text xml:space="preserve" font-family="Helvetica-Light" font-size="50.0" fill="#000000" transform="matrix(1.00, 0.00, -0.00, -1.00, 441.1, 663.0)"> </text><text xml:space="preserve" font-family="Helvetica-Light" font-size="50.0" fill="#000000" transform="matrix(1.00, 0.00, -0.00, -1.00, 455.0, 663.0)">s</text><text xml:space="preserve" font-family="Helvetica-Light" font-size="50.0" fill="#000000" transform="matrix(1.00, 0.00, -0.00, -1.00, 480.0, 663.0)">e</text><text xml:space="preserve" font-family="Helvetica-Light" font-size="50.0" fill="#000000" transform="matrix(1.00, 0.00, -0.00, -1.00, 507.8, 663.0)">x</text><text xml:space="preserve" font-family="Helvetica-Light" font-size="50.0" fill="#000000" transform="matrix(1.00, 0.00, -0.00, -1.00, 532.8, 663.0)">/</text><text xml:space="preserve" font-family="Helvetica-Light" font-size="50.0" fill="#000000" transform="matrix(1.00, 0.00, -0.00, -1.00, 546.7, 663.0)">s</text><text xml:space="preserve" font-family="Helvetica-Light" font-size="50.0" fill="#000000" transform="matrix(1.00, 0.00, -0.00, -1.00, 571.7, 663.0)">t</text><text xml:space="preserve" font-family="Helvetica-Light" font-size="50.0" fill="#000000" transform="matrix(1.00, 0.00, -0.00, -1.00, 585.6, 663.0)">a</text><text xml:space="preserve" font-family="Helvetica-Light" font-size="50.0" fill="#000000" transform="matrix(1.00, 0.00, -0.00, -1.00, 613.4, 663.0)">t</text><text xml:space="preserve" font-family="Helvetica-Light" font-size="50.0" fill="#000000" transform="matrix(1.00, 0.00, -0.00, -1.00, 627.3, 663.0)">u</text><text xml:space="preserve" font-family="Helvetica-Light" font-size="50.0" fill="#000000" transform="matrix(1.00, 0.00, -0.00, -1.00, 655.1, 663.0)">s</text><text xml:space="preserve" font-family="Helvetica-Light" font-size="50.0" fill="#000000" transform="matrix(1.00, 0.00, -0.00, -1.00, 680.1, 663.0)"> </text><text xml:space="preserve" font-family="Helvetica-Light" font-size="50.0" fill="#000000" transform="matrix(1.00, 0.00, -0.00, -1.00, 694.0, 663.0)">c</text><text xml:space="preserve" font-family="Helvetica-Light" font-size="50.0" fill="#000000" transform="matrix(1.00, 0.00, -0.00, -1.00, 721.8, 663.0)">o</text><text xml:space="preserve" font-family="Helvetica-Light" font-size="50.0" fill="#000000" transform="matrix(1.00, 0.00, -0.00, -1.00, 749.6, 663.0)">l</text><text xml:space="preserve" font-family="Helvetica-Light" font-size="50.0" fill="#000000" transform="matrix(1.00, 0.00, -0.00, -1.00, 760.7, 663.0)">u</text><text xml:space="preserve" font-family="Helvetica-Light" font-size="50.0" fill="#000000" transform="matrix(1.00, 0.00, -0.00, -1.00, 788.5, 663.0)">m</text><text xml:space="preserve" font-family="Helvetica-Light" font-size="50.0" fill="#000000" transform="matrix(1.00, 0.00, -0.00, -1.00, 830.1, 663.0)">n</text><g><clipPath id="clip-67"><path d="M 62.7 95.3 L 471.6 95.3 L 471.6 566.2 L 62.7 566.2 Z M 62.7 95.3 "></path></clipPath><g clip-path="url(#clip-67)"><image xlink:href="0844EE004367223C34FFF1D3E18F5EB5.png" width="409.00" height="471.00" transform="matrix(1.00, 0.00, -0.00, -1.00, 63.0, 566.0)"></image></g></g><g><clipPath id="clip-68"><path d="M 58.7 461.8 L 475.6 461.8 L 475.6 533.2 L 58.7 533.2 Z M 58.7 461.8 "></path></clipPath><g clip-path="url(#clip-68)"><image xlink:href="B89432D3F6741531AE44FEFA3970F093.png" width="415.00" height="69.00" transform="matrix(1.00, 0.00, -0.00, -1.01, 59.7, 532.2)" opacity="0.15"></image></g></g><g><clipPath id="clip-69"><path d="M 58.7 461.8 L 475.6 461.8 L 475.6 533.2 L 58.7 533.2 Z M 58.7 461.8 "></path></clipPath><g clip-path="url(#clip-69)"><g opacity="0.30"><g><clipPath id="clip-70"><path d="M 62.7 531.2 L 471.6 531.2 L 471.6 467.8 L 62.7 467.8 Z M 62.7 531.2 "></path></clipPath><g clip-path="url(#clip-70)"><g><clipPath id="clip-71"><path d="M 62.0 467.0 L 472.0 467.0 L 472.0 532.0 L 62.0 532.0 Z M 62.0 467.0 "></path></clipPath><g clip-path="url(#clip-71)"><path d="M 62.7 467.8 L 471.6 467.8 L 471.6 531.2 L 62.7 531.2 Z M 62.7 467.8 " fill="url(#D4C8DA4B-0BB0-47BF-A7FA-406C2AEB3CB6)"></path><path d="M 62.7 467.8 L 471.6 467.8 L 471.6 531.2 L 62.7 531.2 Z M 62.7 467.8 " fill="#009BFC" fill-opacity="0.50"></path></g></g></g></g></g></g></g><g><clipPath id="clip-72"><path d="M 58.7 399.3 L 475.6 399.3 L 475.6 470.8 L 58.7 470.8 Z M 58.7 399.3 "></path></clipPath><g clip-path="url(#clip-72)"><image xlink:href="49673C7913C4A9C5F7C6F510521B8BE4.png" width="415.00" height="69.00" transform="matrix(1.00, 0.00, -0.00, -1.01, 59.7, 469.8)" opacity="0.10"></image></g></g><g><clipPath id="clip-73"><path d="M 58.7 399.3 L 475.6 399.3 L 475.6 470.8 L 58.7 470.8 Z M 58.7 399.3 "></path></clipPath><g clip-path="url(#clip-73)"><g opacity="0.20"><g><clipPath id="clip-74"><path d="M 62.7 468.8 L 471.6 468.8 L 471.6 405.3 L 62.7 405.3 Z M 62.7 468.8 "></path></clipPath><g clip-path="url(#clip-74)"><g><clipPath id="clip-75"><path d="M 62.0 405.0 L 472.0 405.0 L 472.0 469.0 L 62.0 469.0 Z M 62.0 405.0 "></path></clipPath><g clip-path="url(#clip-75)"><path d="M 62.7 405.3 L 471.6 405.3 L 471.6 468.8 L 62.7 468.8 Z M 62.7 405.3 " fill="url(#A4FD3747-E20A-4F40-9096-9378CA371299)"></path><path d="M 62.7 405.3 L 471.6 405.3 L 471.6 468.8 L 62.7 468.8 Z M 62.7 405.3 " fill="#FF2A05" fill-opacity="0.50"></path></g></g></g></g></g></g></g><g><clipPath id="clip-76"><path d="M 58.7 214.4 L 475.6 214.4 L 475.6 347.0 L 58.7 347.0 Z M 58.7 214.4 "></path></clipPath><g clip-path="url(#clip-76)"><image xlink:href="B94A3D530595AFA2E8C0EF693334F7D1.png" width="415.00" height="131.00" transform="matrix(1.00, 0.00, -0.00, -1.00, 59.7, 346.0)" opacity="0.10"></image></g></g><g><clipPath id="clip-77"><path d="M 58.7 214.4 L 475.6 214.4 L 475.6 347.0 L 58.7 347.0 Z M 58.7 214.4 "></path></clipPath><g clip-path="url(#clip-77)"><g opacity="0.20"><g><clipPath id="clip-78"><path d="M 62.7 345.0 L 471.6 345.0 L 471.6 220.4 L 62.7 220.4 Z M 62.7 345.0 "></path></clipPath><g clip-path="url(#clip-78)"><g><clipPath id="clip-79"><path d="M 62.0 220.0 L 472.0 220.0 L 472.0 345.0 L 62.0 345.0 Z M 62.0 220.0 "></path></clipPath><g clip-path="url(#clip-79)"><path d="M 62.7 220.4 L 471.6 220.4 L 471.6 345.0 L 62.7 345.0 Z M 62.7 220.4 " fill="url(#37D1228E-F147-428A-929B-3BCB55DB5DD5)"></path><path d="M 62.7 220.4 L 471.6 220.4 L 471.6 345.0 L 62.7 345.0 Z M 62.7 220.4 " fill="#FF2A05" fill-opacity="0.50"></path></g></g></g></g></g></g></g><g><clipPath id="clip-80"><path d="M 58.7 91.7 L 475.6 91.7 L 475.6 163.2 L 58.7 163.2 Z M 58.7 91.7 "></path></clipPath><g clip-path="url(#clip-80)"><image xlink:href="../../21797420-5249-48F8-A4B6-192F2AA7EBAB/assets/49673C7913C4A9C5F7C6F510521B8BE4.png" width="415.00" height="69.00" transform="matrix(1.00, 0.00, -0.00, -1.01, 59.7, 162.2)" opacity="0.10"></image></g></g><g><clipPath id="clip-81"><path d="M 58.7 91.7 L 475.6 91.7 L 475.6 163.2 L 58.7 163.2 Z M 58.7 91.7 "></path></clipPath><g clip-path="url(#clip-81)"><g opacity="0.20"><g><clipPath id="clip-82"><path d="M 62.7 161.2 L 471.6 161.2 L 471.6 97.7 L 62.7 97.7 Z M 62.7 161.2 "></path></clipPath><g clip-path="url(#clip-82)"><g><clipPath id="clip-83"><path d="M 62.0 97.0 L 472.0 97.0 L 472.0 162.0 L 62.0 162.0 Z M 62.0 97.0 "></path></clipPath><g clip-path="url(#clip-83)"><path d="M 62.7 97.7 L 471.6 97.7 L 471.6 161.2 L 62.7 161.2 Z M 62.7 97.7 " fill="url(#2AD6EF9E-A436-41C1-BC9D-430E3C9974A1)"></path><path d="M 62.7 97.7 L 471.6 97.7 L 471.6 161.2 L 62.7 161.2 Z M 62.7 97.7 " fill="#FF2A05" fill-opacity="0.50"></path></g></g></g></g></g></g></g><g><clipPath id="clip-84"><path d="M 61.2 340.7 L 476.2 340.7 L 476.2 407.1 L 61.2 407.1 Z M 61.2 340.7 "></path></clipPath><g clip-path="url(#clip-84)"><image xlink:href="77E4C575E8F6F72F50F7135DAFB44A66.png" width="413.00" height="64.00" transform="matrix(1.00, 0.00, -0.00, -1.01, 62.2, 406.1)" opacity="0.16"></image></g></g><g><clipPath id="clip-85"><path d="M 61.2 340.7 L 476.2 340.7 L 476.2 407.1 L 61.2 407.1 Z M 61.2 340.7 "></path></clipPath><g clip-path="url(#clip-85)"><g opacity="0.20"><g><clipPath id="clip-86"><path d="M 62.7 405.3 L 471.6 405.3 L 471.6 345.0 L 62.7 345.0 Z M 62.7 405.3 "></path></clipPath><g clip-path="url(#clip-86)"><g><clipPath id="clip-87"><path d="M 62.0 344.0 L 472.0 344.0 L 472.0 406.0 L 62.0 406.0 Z M 62.0 344.0 "></path></clipPath><g clip-path="url(#clip-87)"><path d="M 62.7 345.0 L 471.6 345.0 L 471.6 405.3 L 62.7 405.3 Z M 62.7 345.0 " fill="url(#5BC2D3CD-03ED-4529-A361-98BFA3CA43E6)"></path><path d="M 62.7 345.0 L 471.6 345.0 L 471.6 405.3 L 62.7 405.3 Z M 62.7 345.0 " fill="#8336BB" fill-opacity="0.50"></path></g></g></g></g></g></g></g><g><clipPath id="clip-88"><path d="M 58.7 156.2 L 477.6 156.2 L 477.6 226.6 L 58.7 226.6 Z M 58.7 156.2 "></path></clipPath><g clip-path="url(#clip-88)"><image xlink:href="B8D767DBE88226CF60E0F7212274A2DD.png" width="417.00" height="68.00" transform="matrix(1.00, 0.00, -0.00, -1.01, 59.7, 225.6)" opacity="0.10"></image></g></g><g><clipPath id="clip-89"><path d="M 58.7 156.2 L 477.6 156.2 L 477.6 226.6 L 58.7 226.6 Z M 58.7 156.2 "></path></clipPath><g clip-path="url(#clip-89)"><g opacity="0.20"><g><clipPath id="clip-90"><path d="M 62.7 221.6 L 471.6 221.6 L 471.6 161.2 L 62.7 161.2 Z M 62.7 221.6 "></path></clipPath><g clip-path="url(#clip-90)"><g><clipPath id="clip-91"><path d="M 62.0 161.0 L 472.0 161.0 L 472.0 222.0 L 62.0 222.0 Z M 62.0 161.0 "></path></clipPath><g clip-path="url(#clip-91)"><path d="M 62.7 161.2 L 471.6 161.2 L 471.6 221.6 L 62.7 221.6 Z M 62.7 161.2 " fill="url(#B38ED1EF-8430-4AF7-8B69-245CA606F933)"></path><path d="M 62.7 161.2 L 471.6 161.2 L 471.6 221.6 L 62.7 221.6 Z M 62.7 161.2 " fill="#00D026" fill-opacity="0.50"></path></g></g></g></g></g></g></g><g><clipPath id="clip-92"><path d="M 214.7 26.4 L 319.7 26.4 L 319.7 87.4 L 214.7 87.4 Z M 214.7 26.4 "></path></clipPath><g clip-path="url(#clip-92)"><text xml:space="preserve" font-family="Helvetica-Light" font-size="36.0" fill="#000000" transform="matrix(1.00, 0.00, -0.00, -1.00, 224.0, 44.0)">e</text><text xml:space="preserve" font-family="Helvetica-Light" font-size="36.0" fill="#000000" transform="matrix(1.00, 0.00, -0.00, -1.00, 244.0, 44.0)">t</text><text xml:space="preserve" font-family="Helvetica-Light" font-size="36.0" fill="#000000" transform="matrix(1.00, 0.00, -0.00, -1.00, 254.0, 44.0)">c</text><text xml:space="preserve" font-family="Helvetica-Light" font-size="36.0" fill="#000000" transform="matrix(1.00, 0.00, -0.00, -1.00, 274.0, 44.0)">…</text></g></g><g><clipPath id="clip-93"><path d="M 600.6 195.8 L 852.6 195.8 L 852.6 401.8 L 600.6 401.8 Z M 600.6 195.8 "></path></clipPath><g clip-path="url(#clip-93)"><path d="M 601.6 357.5 L 820.8 357.5 L 820.8 400.8 L 601.6 400.8 Z M 601.6 357.5 " fill="#FEFFFF"></path><path d="M 820.8 357.5 L 850.8 357.5 L 850.8 400.8 L 820.8 400.8 Z M 820.8 357.5 " fill="#FEFFFF"></path><path d="M 601.6 321.6 L 820.8 321.6 L 820.8 357.5 L 601.6 357.5 Z M 601.6 321.6 " fill="#E2E5E8"></path><path d="M 820.8 321.6 L 850.8 321.6 L 850.8 357.5 L 820.8 357.5 Z M 820.8 321.6 " fill="#E2E5E8"></path><path d="M 601.6 290.4 L 820.8 290.4 L 820.8 321.6 L 601.6 321.6 Z M 601.6 290.4 " fill="#FEFFFF"></path><path d="M 820.8 290.4 L 850.8 290.4 L 850.8 321.6 L 820.8 321.6 Z M 820.8 290.4 " fill="#FEFFFF"></path><path d="M 601.6 259.2 L 820.8 259.2 L 820.8 290.4 L 601.6 290.4 Z M 601.6 259.2 " fill="#E2E5E8"></path><path d="M 820.8 259.2 L 850.8 259.2 L 850.8 290.4 L 820.8 290.4 Z M 820.8 259.2 " fill="#E2E5E8"></path><path d="M 601.6 228.0 L 820.8 228.0 L 820.8 259.2 L 601.6 259.2 Z M 601.6 228.0 " fill="#FEFFFF"></path><path d="M 820.8 228.0 L 850.8 228.0 L 850.8 259.2 L 820.8 259.2 Z M 820.8 228.0 " fill="#FEFFFF"></path><path d="M 601.6 196.8 L 820.8 196.8 L 820.8 228.0 L 601.6 228.0 Z M 601.6 196.8 " fill="#E2E5E8"></path><path d="M 820.8 196.8 L 850.8 196.8 L 850.8 228.0 L 820.8 228.0 Z M 820.8 196.8 " fill="#E2E5E8"></path></g></g><g><clipPath id="clip-94"><path d="M 601.6 357.5 L 820.8 357.5 L 820.8 400.8 L 601.6 400.8 Z M 601.6 357.5 "></path></clipPath><g clip-path="url(#clip-94)"><text xml:space="preserve" font-family="Helvetica-Bold" font-weight="bold" font-size="18.0" fill="#515151" transform="matrix(1.00, 0.00, -0.00, -1.00, 611.0, 365.0)">s</text><text xml:space="preserve" font-family="Helvetica-Bold" font-weight="bold" font-size="18.0" fill="#515151" transform="matrix(1.00, 0.00, -0.00, -1.00, 621.0, 365.0)">e</text><text xml:space="preserve" font-family="Helvetica-Bold" font-weight="bold" font-size="18.0" fill="#515151" transform="matrix(1.00, 0.00, -0.00, -1.00, 631.0, 365.0)">x</text></g></g><g><clipPath id="clip-95"><path d="M 820.8 357.5 L 850.8 357.5 L 850.8 400.8 L 820.8 400.8 Z M 820.8 357.5 "></path></clipPath><g clip-path="url(#clip-95)"><text xml:space="preserve" font-family="Helvetica-Bold" font-weight="bold" font-size="18.0" fill="#515151" transform="matrix(1.00, 0.00, -0.00, -1.00, 830.0, 365.0)">n</text></g></g><g><clipPath id="clip-96"><path d="M 601.6 321.6 L 820.8 321.6 L 820.8 357.5 L 601.6 357.5 Z M 601.6 321.6 "></path></clipPath><g clip-path="url(#clip-96)"><text xml:space="preserve" font-family="Helvetica" font-size="26.0" fill="#797979" transform="matrix(1.00, 0.00, -0.00, -1.00, 604.0, 330.0)">f</text><text xml:space="preserve" font-family="Helvetica" font-size="26.0" fill="#797979" transform="matrix(1.00, 0.00, -0.00, -1.00, 611.2, 330.0)">e</text><text xml:space="preserve" font-family="Helvetica" font-size="26.0" fill="#797979" transform="matrix(1.00, 0.00, -0.00, -1.00, 625.7, 330.0)">m</text><text xml:space="preserve" font-family="Helvetica" font-size="26.0" fill="#797979" transform="matrix(1.00, 0.00, -0.00, -1.00, 647.3, 330.0)">a</text><text xml:space="preserve" font-family="Helvetica" font-size="26.0" fill="#797979" transform="matrix(1.00, 0.00, -0.00, -1.00, 661.8, 330.0)">l</text><text xml:space="preserve" font-family="Helvetica" font-size="26.0" fill="#797979" transform="matrix(1.00, 0.00, -0.00, -1.00, 667.6, 330.0)">e</text><text xml:space="preserve" font-family="Helvetica" font-size="26.0" fill="#797979" transform="matrix(1.00, 0.00, -0.00, -1.00, 682.1, 330.0)"> </text><text xml:space="preserve" font-family="Helvetica" font-size="26.0" fill="#797979" transform="matrix(1.00, 0.00, -0.00, -1.00, 689.3, 330.0)">n</text><text xml:space="preserve" font-family="Helvetica" font-size="26.0" fill="#797979" transform="matrix(1.00, 0.00, -0.00, -1.00, 703.7, 330.0)">n</text><text xml:space="preserve" font-family="Helvetica" font-size="26.0" fill="#797979" transform="matrix(1.00, 0.00, -0.00, -1.00, 718.2, 330.0)">e</text><text xml:space="preserve" font-family="Helvetica" font-size="26.0" fill="#797979" transform="matrix(1.00, 0.00, -0.00, -1.00, 732.7, 330.0)">u</text><text xml:space="preserve" font-family="Helvetica" font-size="26.0" fill="#797979" transform="matrix(1.00, 0.00, -0.00, -1.00, 747.1, 330.0)">t</text><text xml:space="preserve" font-family="Helvetica" font-size="26.0" fill="#797979" transform="matrix(1.00, 0.00, -0.00, -1.00, 754.4, 330.0)">e</text><text xml:space="preserve" font-family="Helvetica" font-size="26.0" fill="#797979" transform="matrix(1.00, 0.00, -0.00, -1.00, 768.8, 330.0)">r</text><text xml:space="preserve" font-family="Helvetica" font-size="26.0" fill="#797979" transform="matrix(1.00, 0.00, -0.00, -1.00, 777.5, 330.0)">e</text><text xml:space="preserve" font-family="Helvetica" font-size="26.0" fill="#797979" transform="matrix(1.00, 0.00, -0.00, -1.00, 791.9, 330.0)">d</text></g></g><g><clipPath id="clip-97"><path d="M 820.8 321.6 L 850.8 321.6 L 850.8 357.5 L 820.8 357.5 Z M 820.8 321.6 "></path></clipPath><g clip-path="url(#clip-97)"><text xml:space="preserve" font-family="Helvetica" font-size="26.0" fill="#797979" transform="matrix(1.00, 0.00, -0.00, -1.00, 834.3, 330.5)">3</text></g></g><g><clipPath id="clip-98"><path d="M 601.6 290.4 L 820.8 290.4 L 820.8 321.6 L 601.6 321.6 Z M 601.6 290.4 "></path></clipPath><g clip-path="url(#clip-98)"><text xml:space="preserve" font-family="Helvetica" font-size="26.0" fill="#797979" transform="matrix(1.00, 0.00, -0.00, -1.00, 604.0, 297.0)">f</text><text xml:space="preserve" font-family="Helvetica" font-size="26.0" fill="#797979" transform="matrix(1.00, 0.00, -0.00, -1.00, 611.2, 297.0)">n</text></g></g><g><clipPath id="clip-99"><path d="M 820.8 290.4 L 850.8 290.4 L 850.8 321.6 L 820.8 321.6 Z M 820.8 290.4 "></path></clipPath><g clip-path="url(#clip-99)"><text xml:space="preserve" font-family="Helvetica" font-size="26.0" fill="#797979" transform="matrix(1.00, 0.00, -0.00, -1.00, 834.3, 296.6)">9</text></g></g><g><clipPath id="clip-100"><path d="M 601.6 259.2 L 820.8 259.2 L 820.8 290.4 L 601.6 290.4 Z M 601.6 259.2 "></path></clipPath><g clip-path="url(#clip-100)"><text xml:space="preserve" font-family="Helvetica" font-size="26.0" fill="#797979" transform="matrix(1.00, 0.00, -0.00, -1.00, 604.0, 265.0)">m</text><text xml:space="preserve" font-family="Helvetica" font-size="26.0" fill="#797979" transform="matrix(1.00, 0.00, -0.00, -1.00, 625.7, 265.0)">a</text><text xml:space="preserve" font-family="Helvetica" font-size="26.0" fill="#797979" transform="matrix(1.00, 0.00, -0.00, -1.00, 640.1, 265.0)">l</text><text xml:space="preserve" font-family="Helvetica" font-size="26.0" fill="#797979" transform="matrix(1.00, 0.00, -0.00, -1.00, 645.9, 265.0)">e</text><text xml:space="preserve" font-family="Helvetica" font-size="26.0" fill="#797979" transform="matrix(1.00, 0.00, -0.00, -1.00, 660.4, 265.0)"> </text><text xml:space="preserve" font-family="Helvetica" font-size="26.0" fill="#797979" transform="matrix(1.00, 0.00, -0.00, -1.00, 667.6, 265.0)">e</text><text xml:space="preserve" font-family="Helvetica" font-size="26.0" fill="#797979" transform="matrix(1.00, 0.00, -0.00, -1.00, 682.1, 265.0)">n</text><text xml:space="preserve" font-family="Helvetica" font-size="26.0" fill="#797979" transform="matrix(1.00, 0.00, -0.00, -1.00, 696.5, 265.0)">t</text><text xml:space="preserve" font-family="Helvetica" font-size="26.0" fill="#797979" transform="matrix(1.00, 0.00, -0.00, -1.00, 703.7, 265.0)">i</text><text xml:space="preserve" font-family="Helvetica" font-size="26.0" fill="#797979" transform="matrix(1.00, 0.00, -0.00, -1.00, 709.5, 265.0)">r</text><text xml:space="preserve" font-family="Helvetica" font-size="26.0" fill="#797979" transform="matrix(1.00, 0.00, -0.00, -1.00, 718.2, 265.0)">e</text></g></g><g><clipPath id="clip-101"><path d="M 820.8 259.2 L 850.8 259.2 L 850.8 290.4 L 820.8 290.4 Z M 820.8 259.2 "></path></clipPath><g clip-path="url(#clip-101)"><text xml:space="preserve" font-family="Helvetica" font-size="26.0" fill="#797979" transform="matrix(1.00, 0.00, -0.00, -1.00, 834.3, 265.4)">6</text></g></g><g><clipPath id="clip-102"><path d="M 601.6 228.0 L 820.8 228.0 L 820.8 259.2 L 601.6 259.2 Z M 601.6 228.0 "></path></clipPath><g clip-path="url(#clip-102)"><text xml:space="preserve" font-family="Helvetica" font-size="26.0" fill="#797979" transform="matrix(1.00, 0.00, -0.00, -1.00, 604.0, 234.0)">m</text><text xml:space="preserve" font-family="Helvetica" font-size="26.0" fill="#797979" transform="matrix(1.00, 0.00, -0.00, -1.00, 625.7, 234.0)">n</text></g></g><g><clipPath id="clip-103"><path d="M 820.8 228.0 L 850.8 228.0 L 850.8 259.2 L 820.8 259.2 Z M 820.8 228.0 "></path></clipPath><g clip-path="url(#clip-103)"><text xml:space="preserve" font-family="Helvetica" font-size="26.0" fill="#797979" transform="matrix(1.00, 0.00, -0.00, -1.00, 823.8, 234.2)">1</text><text xml:space="preserve" font-family="Helvetica" font-size="26.0" fill="#797979" transform="matrix(1.00, 0.00, -0.00, -1.00, 838.2, 234.2)">5</text></g></g><g><clipPath id="clip-104"><path d="M 601.6 196.8 L 820.8 196.8 L 820.8 228.0 L 601.6 228.0 Z M 601.6 196.8 "></path></clipPath><g clip-path="url(#clip-104)"><text xml:space="preserve" font-family="Helvetica" font-size="26.0" fill="#797979" transform="matrix(1.00, 0.00, -0.00, -1.00, 604.0, 203.0)">M</text><text xml:space="preserve" font-family="Helvetica" font-size="26.0" fill="#797979" transform="matrix(1.00, 0.00, -0.00, -1.00, 625.7, 203.0)">N</text></g></g><g><clipPath id="clip-105"><path d="M 820.8 196.8 L 850.8 196.8 L 850.8 228.0 L 820.8 228.0 Z M 820.8 196.8 "></path></clipPath><g clip-path="url(#clip-105)"><text xml:space="preserve" font-family="Helvetica" font-size="26.0" fill="#797979" transform="matrix(1.00, 0.00, -0.00, -1.00, 834.3, 203.0)">3</text></g></g><g><clipPath id="clip-106"><path d="M 600.1 317.3 L 855.3 317.3 L 855.3 359.2 L 600.1 359.2 Z M 600.1 317.3 "></path></clipPath><g clip-path="url(#clip-106)"><image xlink:href="604C7E579C21945B5F3EA712C08A7A2F.png" width="253.00" height="40.00" transform="matrix(1.00, 0.00, -0.00, -1.00, 601.1, 358.2)" opacity="0.16"></image></g></g><g><clipPath id="clip-107"><path d="M 600.1 317.3 L 855.3 317.3 L 855.3 359.2 L 600.1 359.2 Z M 600.1 317.3 "></path></clipPath><g clip-path="url(#clip-107)"><g opacity="0.20"><g><clipPath id="clip-108"><path d="M 601.6 357.5 L 850.8 357.5 L 850.8 321.6 L 601.6 321.6 Z M 601.6 357.5 "></path></clipPath><g clip-path="url(#clip-108)"><g><clipPath id="clip-109"><path d="M 601.0 321.0 L 851.0 321.0 L 851.0 358.0 L 601.0 358.0 Z M 601.0 321.0 "></path></clipPath><g clip-path="url(#clip-109)"><image xlink:href="../../21797420-5249-48F8-A4B6-192F2AA7EBAB/assets/6138D0B2CBF6112E6A380E3E5DA4A92D.jpeg" width="410.00" height="410.00" transform="matrix(0.73, 0.00, -0.00, -0.73, 601.6, 357.5)"></image><path d="M 601.6 321.6 L 850.8 321.6 L 850.8 357.5 L 601.6 357.5 Z M 601.6 321.6 " fill="#8336BB" fill-opacity="0.50"></path></g></g></g></g></g></g></g><g><clipPath id="clip-110"><path d="M 597.6 285.6 L 854.8 285.6 L 854.8 323.6 L 597.6 323.6 Z M 597.6 285.6 "></path></clipPath><g clip-path="url(#clip-110)"><image xlink:href="F712E9B868AF58F6E456EF527EBE4105.png" width="255.00" height="36.00" transform="matrix(1.00, 0.00, -0.00, -1.00, 598.6, 322.6)" opacity="0.15"></image></g></g><g><clipPath id="clip-111"><path d="M 597.6 285.6 L 854.8 285.6 L 854.8 323.6 L 597.6 323.6 Z M 597.6 285.6 "></path></clipPath><g clip-path="url(#clip-111)"><g opacity="0.30"><g><clipPath id="clip-112"><path d="M 601.6 321.6 L 850.8 321.6 L 850.8 291.6 L 601.6 291.6 Z M 601.6 321.6 "></path></clipPath><g clip-path="url(#clip-112)"><g><clipPath id="clip-113"><path d="M 601.0 291.0 L 851.0 291.0 L 851.0 322.0 L 601.0 322.0 Z M 601.0 291.0 "></path></clipPath><g clip-path="url(#clip-113)"><image xlink:href="../../21797420-5249-48F8-A4B6-192F2AA7EBAB/assets/6138D0B2CBF6112E6A380E3E5DA4A92D.jpeg" width="410.00" height="410.00" transform="matrix(0.73, 0.00, -0.00, -0.73, 601.6, 321.6)"></image><path d="M 601.6 291.6 L 850.8 291.6 L 850.8 321.6 L 601.6 321.6 Z M 601.6 291.6 " fill="#009BFC" fill-opacity="0.50"></path></g></g></g></g></g></g></g><g><clipPath id="clip-114"><path d="M 597.6 254.2 L 856.8 254.2 L 856.8 296.6 L 597.6 296.6 Z M 597.6 254.2 "></path></clipPath><g clip-path="url(#clip-114)"><image xlink:href="DC1276027B2CCE149E0D439041FC419E.png" width="257.00" height="40.00" transform="matrix(1.00, 0.00, -0.00, -1.01, 598.6, 295.6)" opacity="0.10"></image></g></g><g><clipPath id="clip-115"><path d="M 597.6 254.2 L 856.8 254.2 L 856.8 296.6 L 597.6 296.6 Z M 597.6 254.2 "></path></clipPath><g clip-path="url(#clip-115)"><g opacity="0.20"><g><clipPath id="clip-116"><path d="M 601.6 291.6 L 850.8 291.6 L 850.8 259.2 L 601.6 259.2 Z M 601.6 291.6 "></path></clipPath><g clip-path="url(#clip-116)"><g><clipPath id="clip-117"><path d="M 601.0 259.0 L 851.0 259.0 L 851.0 292.0 L 601.0 292.0 Z M 601.0 259.0 "></path></clipPath><g clip-path="url(#clip-117)"><image xlink:href="../../21797420-5249-48F8-A4B6-192F2AA7EBAB/assets/6138D0B2CBF6112E6A380E3E5DA4A92D.jpeg" width="410.00" height="410.00" transform="matrix(0.73, 0.00, -0.00, -0.73, 601.6, 291.6)"></image><path d="M 601.6 259.2 L 850.8 259.2 L 850.8 291.6 L 601.6 291.6 Z M 601.6 259.2 " fill="#00D026" fill-opacity="0.50"></path></g></g></g></g></g></g></g><g><clipPath id="clip-118"><path d="M 597.6 222.0 L 854.8 222.0 L 854.8 261.1 L 597.6 261.1 Z M 597.6 222.0 "></path></clipPath><g clip-path="url(#clip-118)"><image xlink:href="FCB81776CD5AE1B9B986CB7F9DFE2BAD.png" width="255.00" height="37.00" transform="matrix(1.00, 0.00, -0.00, -1.00, 598.6, 260.1)" opacity="0.10"></image></g></g><g><clipPath id="clip-119"><path d="M 597.6 222.0 L 854.8 222.0 L 854.8 261.1 L 597.6 261.1 Z M 597.6 222.0 "></path></clipPath><g clip-path="url(#clip-119)"><g opacity="0.20"><g><clipPath id="clip-120"><path d="M 601.6 259.1 L 850.8 259.1 L 850.8 228.0 L 601.6 228.0 Z M 601.6 259.1 "></path></clipPath><g clip-path="url(#clip-120)"><g><clipPath id="clip-121"><path d="M 601.0 227.0 L 851.0 227.0 L 851.0 260.0 L 601.0 260.0 Z M 601.0 227.0 "></path></clipPath><g clip-path="url(#clip-121)"><image xlink:href="../../21797420-5249-48F8-A4B6-192F2AA7EBAB/assets/6138D0B2CBF6112E6A380E3E5DA4A92D.jpeg" width="410.00" height="410.00" transform="matrix(0.73, 0.00, -0.00, -0.73, 601.6, 259.1)"></image><path d="M 601.6 228.0 L 850.8 228.0 L 850.8 259.1 L 601.6 259.1 Z M 601.6 228.0 " fill="#FF2A05" fill-opacity="0.50"></path></g></g></g></g></g></g></g></g></svg>